<mxfile host="app.diagrams.net" modified="2023-07-07T17:49:47.825Z" agent="Mozilla/5.0 (Windows NT 10.0; Win64; x64) AppleWebKit/537.36 (KHTML, like Gecko) Chrome/114.0.0.0 Safari/537.36" etag="RbP0JNYDGkh7IhEN0ubO" version="21.6.1" type="device">
  <diagram name="Page-1" id="5f0bae14-7c28-e335-631c-24af17079c00">
    <mxGraphModel dx="2074" dy="707" grid="1" gridSize="10" guides="1" tooltips="1" connect="1" arrows="1" fold="1" page="1" pageScale="1" pageWidth="1600" pageHeight="900" background="none" math="0" shadow="0">
      <root>
        <mxCell id="0" />
        <mxCell id="1" parent="0" />
        <mxCell id="CGxH58aDDcTyQuzBB_l0-20" value="" style="rounded=1;whiteSpace=wrap;html=1;arcSize=7;verticalAlign=top;fontStyle=1;align=left;shadow=1;dashed=1;strokeWidth=2;fillColor=none;labelPosition=center;verticalLabelPosition=middle;" parent="1" vertex="1">
          <mxGeometry x="455" y="227.5" width="710" height="298.15" as="geometry" />
        </mxCell>
        <mxCell id="EwTlEHrbE4cRD-cIpj15-3" value="Measurement Model for MEKF" style="rounded=1;whiteSpace=wrap;html=1;arcSize=4;fillColor=none;dashed=1;strokeWidth=2;shadow=1;verticalAlign=top;fontStyle=1" parent="1" vertex="1">
          <mxGeometry x="70" y="100" width="704" height="600" as="geometry" />
        </mxCell>
        <mxCell id="39150e848f15840c-1" value="Neural Networks" style="verticalAlign=top;align=center;spacingTop=8;spacingLeft=2;spacingRight=12;shape=cube;size=10;direction=south;fontStyle=1;html=1;rounded=0;shadow=0;comic=0;labelBackgroundColor=none;strokeWidth=1;fontFamily=Helvetica;fontSize=12;fillColor=#76608a;fontColor=#ffffff;strokeColor=#432D57;" parent="1" vertex="1">
          <mxGeometry x="80" y="290" width="270" height="370" as="geometry" />
        </mxCell>
        <mxCell id="39150e848f15840c-2" value="Static Pose Solvers" style="verticalAlign=top;align=center;spacingTop=8;spacingLeft=2;spacingRight=12;shape=cube;size=10;direction=south;fontStyle=1;html=1;rounded=0;shadow=0;comic=0;labelBackgroundColor=none;strokeWidth=1;fontFamily=Helvetica;fontSize=12;fillColor=#6d8764;fontColor=#ffffff;strokeColor=#3A5431;" parent="1" vertex="1">
          <mxGeometry x="467.5" y="259.35" width="300" height="250" as="geometry" />
        </mxCell>
        <mxCell id="39150e848f15840c-14" style="edgeStyle=elbowEdgeStyle;rounded=0;html=1;labelBackgroundColor=none;startArrow=none;startFill=0;startSize=8;endArrow=none;endFill=0;endSize=16;fontFamily=Verdana;fontSize=12;" parent="1" edge="1">
          <mxGeometry relative="1" as="geometry">
            <mxPoint x="370" y="230" as="sourcePoint" />
          </mxGeometry>
        </mxCell>
        <mxCell id="5LN-RqDGlyLoc7xO4hJt-8" value="Object Detection&lt;br&gt;Network" style="rounded=1;whiteSpace=wrap;html=1;shadow=1;fontFamily=Helvetica;fontStyle=1;fillColor=#dae8fc;strokeColor=#6C8EBF;fontColor=#526C91;" parent="1" vertex="1">
          <mxGeometry x="137.5" y="330" width="155" height="100" as="geometry" />
        </mxCell>
        <mxCell id="5LN-RqDGlyLoc7xO4hJt-9" value="Keypoint Regression Network" style="rounded=1;whiteSpace=wrap;html=1;shadow=1;fontFamily=Helvetica;fontStyle=1;fillColor=#e1d5e7;strokeColor=#9673A6;fontColor=#6F557A;" parent="1" vertex="1">
          <mxGeometry x="137.97" y="514.5" width="155.01" height="100" as="geometry" />
        </mxCell>
        <mxCell id="5LN-RqDGlyLoc7xO4hJt-10" value="Kalman Filtering Loop" style="verticalAlign=top;align=center;spacingTop=8;spacingLeft=2;spacingRight=12;shape=cube;size=10;direction=south;fontStyle=1;html=1;rounded=0;shadow=0;comic=0;labelBackgroundColor=none;strokeWidth=1;fontFamily=Helvetica;fontSize=12;fillColor=#f0a30a;fontColor=#FFFFFF;strokeColor=#BD7000;" parent="1" vertex="1">
          <mxGeometry x="855" y="259.34999999999997" width="300" height="250" as="geometry" />
        </mxCell>
        <mxCell id="5LN-RqDGlyLoc7xO4hJt-6" value="" style="editableCssRules=.*;html=1;shape=image;verticalLabelPosition=bottom;labelBackgroundColor=#ffffff;verticalAlign=top;aspect=fixed;imageAspect=0;image=data:image/svg+xml,PHN2ZyB4bWxucz0iaHR0cDovL3d3dy53My5vcmcvMjAwMC9zdmciIHhtbG5zOnY9Imh0dHBzOi8vdmVjdGEuaW8vbmFubyIgd2lkdGg9IjM4MC42MzY0OTE2NzUyNjI0NSIgaGVpZ2h0PSIyNzUuNjgyNTM0NzQ5ODYxMTMiIHZpZXdCb3g9Ii0wLjM2OTAwMDAxNzY0Mjk3NDg1IDAgMTAwLjcxMDAwNjcxMzg2NzE5IDcyLjk0MTAwMTg5MjA4OTg0Ij4mI3hhOzxzdHlsZSB0eXBlPSJ0ZXh0L2NzcyI+JiN4YTsJLnN0MHtmaWxsOiM0Mjg1ZjQ7fSYjeGE7CS5zdDF7ZmlsbDojYWVjYmZhO30mI3hhOwkuc3Qye2ZpbGw6IzY2OWRmNjt9JiN4YTs8L3N0eWxlPiYjeGE7CTxwYXRoIGNsYXNzPSJzdDAiIGQ9Ik0xMDAuMzQxIDQwLjA4TDc2LjQ0IDcyLjk0MWwtNDcuNjkyLS4wNy00Ljg0Ni02LjY1OSA0Ljg4MS02LjU4OSAzOC4xMDUuMDcgMjMuNzY1LTMyLjg0NXpNLS4zNjkgMzIuODYxTDIzLjUzMiAwbDQ3LjY5Mi4wNyA0Ljg0NiA2LjY1OS00Ljg4MSA2LjU4OS0zOC4xMDUtLjA3TDkuMzE5IDQ2LjA5M3oiLz4mI3hhOwk8cGF0aCBjbGFzcz0ic3QxIiBkPSJNMzYuMjQgNDMuNzUyVjI3LjU3NmwxNy4xMTcgOC4wMTh2MTYuOTc4eiIvPiYjeGE7CTxwYXRoIGNsYXNzPSJzdDIiIGQ9Ik01OC4wMTEgNDEuNjk1di04LjgybC05Ljk1My00LjYzN3YtNy45ODNsMTcuMTE3IDguMTIzdjE3LjAxM3oiLz4mI3hhOzwvc3ZnPg==;fontFamily=Helvetica;fontStyle=0;" parent="1" vertex="1">
          <mxGeometry x="707.5" y="469.35" width="40" height="32" as="geometry" />
        </mxCell>
        <mxCell id="5LN-RqDGlyLoc7xO4hJt-11" value="NLS Solver" style="rounded=1;whiteSpace=wrap;html=1;shadow=1;fontFamily=Helvetica;fontStyle=1;fillColor=#d5e8d4;strokeColor=#82b366;fontColor=#4E6B3D;" parent="1" vertex="1">
          <mxGeometry x="487.5" y="334.35" width="100" height="100" as="geometry" />
        </mxCell>
        <mxCell id="5LN-RqDGlyLoc7xO4hJt-12" value="PnP Solver" style="rounded=1;whiteSpace=wrap;html=1;shadow=1;fontFamily=Helvetica;fontStyle=1;fillColor=#d5e8d4;strokeColor=#82B366;fontColor=#4E6B3D;" parent="1" vertex="1">
          <mxGeometry x="637.5" y="334.35" width="100" height="100" as="geometry" />
        </mxCell>
        <mxCell id="5LN-RqDGlyLoc7xO4hJt-13" value="" style="editableCssRules=.*;html=1;shape=image;verticalLabelPosition=bottom;labelBackgroundColor=#ffffff;verticalAlign=top;aspect=fixed;imageAspect=0;image=data:image/svg+xml,PHN2ZyB4bWxucz0iaHR0cDovL3d3dy53My5vcmcvMjAwMC9zdmciIHhtbG5zOnY9Imh0dHBzOi8vdmVjdGEuaW8vbmFubyIgd2lkdGg9IjM4MC41MTE5Nzg1NDYzNTQ0NCIgaGVpZ2h0PSIyNzQuOTI5OTg3NzczNzYyNTUiIHZpZXdCb3g9IjAgMCAxMDAuNjc2OTk0MzIzNzMwNDcgNzIuNzQxOTk2NzY1MTM2NzIiPiYjeGE7PHN0eWxlIHR5cGU9InRleHQvY3NzIj4mI3hhOwkuc3Qwe2ZpbGw6IzQyODVmNDt9JiN4YTs8L3N0eWxlPiYjeGE7CTxwYXRoIGNsYXNzPSJzdDAiIGQ9Ik0zNy41NyA0NC43MjRoMjUuNDc3djUuNDY5SDM3LjU3em0wLTEwLjE0NmgyNS40Nzd2NS40NjlIMzcuNTd6bTAtMTAuMTQ2aDI1LjQ3N3Y1LjQ2OUgzNy41N3ptNTMuNTIgMi4yNzhsOS41ODcgMTMuMTQzLTIzLjc4MiAzMi44ODlIMjkuMDdsLTQuNzQxLTYuNTY4IDQuODExLTYuNTYxaDM4LjEwMXpNOS41ODcgNDYuMDMyTDAgMzIuODg5IDIzLjc4MiAwaDQ3LjgyNWw0Ljc0MSA2LjU2OC00LjgxMSA2LjU2MUgzMy40Mzd6Ii8+JiN4YTs8L3N2Zz4=;fontFamily=Helvetica;fontStyle=0;" parent="1" vertex="1">
          <mxGeometry x="1095" y="469.35" width="40" height="32" as="geometry" />
        </mxCell>
        <mxCell id="5LN-RqDGlyLoc7xO4hJt-14" value="MEKF" style="rounded=1;whiteSpace=wrap;html=1;glass=0;shadow=1;fontFamily=Helvetica;fontStyle=1;fillColor=#ffe6cc;strokeColor=#d79b00;fontColor=#965900;" parent="1" vertex="1">
          <mxGeometry x="930" y="334.35" width="150" height="100" as="geometry" />
        </mxCell>
        <mxCell id="5LN-RqDGlyLoc7xO4hJt-17" value="Python" style="rounded=1;whiteSpace=wrap;html=1;fontFamily=Helvetica;fontStyle=0;fillColor=#76608A;fontColor=#ffffff;strokeColor=#432D57;shadow=1;" parent="1" vertex="1">
          <mxGeometry x="86.5" y="630" width="50" height="20" as="geometry" />
        </mxCell>
        <mxCell id="5LN-RqDGlyLoc7xO4hJt-31" value="" style="editableCssRules=.*;html=1;shape=image;verticalLabelPosition=bottom;labelBackgroundColor=#ffffff;verticalAlign=top;aspect=fixed;imageAspect=0;image=data:image/svg+xml,PHN2ZyB4bWxucz0iaHR0cDovL3d3dy53My5vcmcvMjAwMC9zdmciIHhtbG5zOnY9Imh0dHBzOi8vdmVjdGEuaW8vbmFubyIgd2lkdGg9IjE2Ljk3OTk5OTU0MjIzNjMyOCIgaGVpZ2h0PSIyMCIgdmlld0JveD0iMCAwIDE2Ljk3OTk5OTU0MjIzNjMyOCAyMCI+JiN4YTsJPHN0eWxlIHR5cGU9InRleHQvY3NzIj4mI3hhOwkuc3Qwe2ZpbGw6IzY2OWRmNjt9JiN4YTsJLnN0MXtmaWxsOiM0Mjg1ZjQ7fSYjeGE7CS5zdDJ7ZmlsbDojYWVjYmZhO30mI3hhOwk8L3N0eWxlPiYjeGE7CTxnIGNsYXNzPSJzdDAiPiYjeGE7CQk8cGF0aCBkPSJNOC40OSAxMC4yOUwuMjQgNS4zNSA4LjQ5LjU4bDguMjQgNC42N3pNMS43NiA1LjM2bDYuNzIgNCA2LjcyLTQuMTEtNi43MS0zLjc4eiIvPiYjeGE7CQk8cGF0aCBkPSJNOC40OSAxOS40NEwuMjEgMTMuODkgOC40OSA5LjNsOC4xNSA0LjY0em0tNi44LTUuNWw2LjggNC41NiA2LjctNC41LTYuNy0zLjgyeiIvPiYjeGE7CTwvZz4mI3hhOwk8ZyBjbGFzcz0ic3QxIj4mI3hhOwkJPHBhdGggZD0iTS42MTMgNS41MDJsLjY3NS0uMzcxIDcuNDc3IDEzLjYtLjY3NS4zNzF6Ii8+JiN4YTsJCTxwYXRoIGQ9Ik04LjE5NCAxOC44MjZsNy4zMDEtMTMuNTU5LjY3OC4zNjUtNy4zMDEgMTMuNTU5ek0uNzE2IDEzLjY4N0w4LjA5Ni45MDRsLjY2Ny4zODUtNy4zOCAxMi43ODN6Ii8+JiN4YTsJCTxwYXRoIGQ9Ik04LjE5NCAxLjIxNGwuNjY5LS4zODEgNy40MDUgMTIuOTg3LS42NjkuMzgxeiIvPiYjeGE7CQk8cGF0aCBkPSJNOC4xMy45NmguNzdWMTguOWgtLjc3ek0uNTUgNS40M2guNzd2OC42NkguNTV6bTE0Ljk3LS4wOWguNzdWMTRoLS43N3oiLz4mI3hhOwk8L2c+JiN4YTsJPGcgY2xhc3M9InN0MiI+JiN4YTsJCTxjaXJjbGUgY3g9IjguNTIiIGN5PSIxLjA3IiByPSIxLjA3Ii8+JiN4YTsJCTxjaXJjbGUgY3g9IjE1LjkxIiBjeT0iNS4zNCIgcj0iMS4wNyIvPiYjeGE7CQk8Y2lyY2xlIGN4PSIxLjA3IiBjeT0iNS4zNCIgcj0iMS4wNyIvPiYjeGE7CQk8Y2lyY2xlIGN4PSI4LjUyIiBjeT0iOS45MyIgcj0iMS42OCIvPiYjeGE7CQk8Y2lyY2xlIGN4PSIxNS45MSIgY3k9IjEzLjk0IiByPSIxLjA3Ii8+JiN4YTsJCTxjaXJjbGUgY3g9IjEuMDciIGN5PSIxMy45NCIgcj0iMS4wNyIvPiYjeGE7CQk8Y2lyY2xlIGN4PSI4LjUyIiBjeT0iMTguOTMiIHI9IjEuMDciLz4mI3hhOwkJPHBhdGggZD0iTTguNDkgMTAuMjlMLjI0IDUuMzUgOC40OS41OGw4LjI0IDQuNjd6TTEuNzYgNS4zNmw2LjcyIDQgNi43Mi00LjExLTYuNzEtMy43OHoiLz4mI3hhOwkJPHBhdGggZD0iTTguNDkgMTkuNDRMLjIxIDEzLjg5IDguNDkgOS4zbDguMTUgNC42NHptLTYuOC01LjVsNi44IDQuNTYgNi43LTQuNS02LjctMy44MnoiLz4mI3hhOwkJPHBhdGggZD0iTS42MTMgNS41MDJsLjY3NS0uMzcxIDcuNDc3IDEzLjYtLjY3NS4zNzF6Ii8+JiN4YTsJCTxwYXRoIGQ9Ik04LjE5NCAxOC44MjZsNy4zMDEtMTMuNTU5LjY3OC4zNjUtNy4zMDEgMTMuNTU5ek0uNzE2IDEzLjY4N0w4LjA5Ni45MDRsLjY2Ny4zODUtNy4zOCAxMi43ODN6Ii8+JiN4YTsJCTxwYXRoIGQ9Ik04LjE5NCAxLjIxNGwuNjY5LS4zODEgNy40MDUgMTIuOTg3LS42NjkuMzgxeiIvPiYjeGE7CQk8cGF0aCBkPSJNOC4xMy45NmguNzdWMTguOWgtLjc3ek0uNTUgNS40M2guNzd2OC42NkguNTV6bTE0Ljk3LS4wOWguNzdWMTRoLS43N3oiLz4mI3hhOwk8L2c+JiN4YTsJPGcgY2xhc3M9InN0MCI+JiN4YTsJCTxjaXJjbGUgY3g9IjguNTIiIGN5PSIxLjA3IiByPSIxLjA3Ii8+JiN4YTsJCTxjaXJjbGUgY3g9IjE1LjkxIiBjeT0iNS4zNCIgcj0iMS4wNyIvPiYjeGE7CQk8Y2lyY2xlIGN4PSIxLjA3IiBjeT0iNS4zNCIgcj0iMS4wNyIvPiYjeGE7CQk8Y2lyY2xlIGN4PSI4LjUyIiBjeT0iOS45MyIgcj0iMS42OCIvPiYjeGE7CQk8Y2lyY2xlIGN4PSIxNS45MSIgY3k9IjEzLjk0IiByPSIxLjA3Ii8+JiN4YTsJCTxjaXJjbGUgY3g9IjEuMDciIGN5PSIxMy45NCIgcj0iMS4wNyIvPiYjeGE7CQk8Y2lyY2xlIGN4PSI4LjUyIiBjeT0iMTguOTMiIHI9IjEuMDciLz4mI3hhOwk8L2c+JiN4YTs8L3N2Zz4=;fontFamily=Helvetica;fontStyle=0;" parent="1" vertex="1">
          <mxGeometry x="264.33000000000004" y="585.39" width="22.01" height="25.89" as="geometry" />
        </mxCell>
        <mxCell id="5LN-RqDGlyLoc7xO4hJt-35" value="Cropped ROI Image" style="rounded=0;whiteSpace=wrap;html=1;align=left;strokeColor=none;fontFamily=Helvetica;fontStyle=0;fillColor=none;labelBackgroundColor=none;fontColor=#FFFFFF;" parent="1" vertex="1">
          <mxGeometry x="245.48000000000002" y="456.85" width="95" height="45" as="geometry" />
        </mxCell>
        <mxCell id="5LN-RqDGlyLoc7xO4hJt-37" value="Monocular&lt;br&gt;Camera" style="shape=hexagon;perimeter=hexagonPerimeter2;whiteSpace=wrap;html=1;fixedSize=1;align=center;rounded=1;shadow=1;fontFamily=Helvetica;fontStyle=1;fillColor=#f5f5f5;strokeColor=#666666;fontColor=#333333;" parent="1" vertex="1">
          <mxGeometry x="136.5" y="120" width="157.72" height="90" as="geometry" />
        </mxCell>
        <mxCell id="5LN-RqDGlyLoc7xO4hJt-5" value="" style="editableCssRules=.*;html=1;shape=image;verticalLabelPosition=bottom;labelBackgroundColor=#ffffff;verticalAlign=top;aspect=fixed;imageAspect=0;image=data:image/svg+xml,PHN2ZyB4bWxucz0iaHR0cDovL3d3dy53My5vcmcvMjAwMC9zdmciIHhtbG5zOnY9Imh0dHBzOi8vdmVjdGEuaW8vbmFubyIgd2lkdGg9IjM4MC42MzY0OTE2NzUyNjI0NSIgaGVpZ2h0PSIyNzUuNjgyNTM0NzQ5ODYxMTMiIHZpZXdCb3g9Ii0wLjM2OTAwMDAxNzY0Mjk3NDg1IDAgMTAwLjcxMDAwNjcxMzg2NzE5IDcyLjk0MTAwMTg5MjA4OTg0Ij4mI3hhOzxzdHlsZSB0eXBlPSJ0ZXh0L2NzcyI+JiN4YTsJLnN0MHtmaWxsOiM0Mjg1ZjQ7fSYjeGE7CS5zdDF7ZmlsbDojYWVjYmZhO30mI3hhOwkuc3Qye2ZpbGw6IzY2OWRmNjt9JiN4YTs8L3N0eWxlPiYjeGE7CTxwYXRoIGNsYXNzPSJzdDAiIGQ9Ik0xMDAuMzQxIDQwLjA4TDc2LjQ0IDcyLjk0MWwtNDcuNjkyLS4wNy00Ljg0Ni02LjY1OSA0Ljg4MS02LjU4OSAzOC4xMDUuMDcgMjMuNzY1LTMyLjg0NXpNLS4zNjkgMzIuODYxTDIzLjUzMiAwbDQ3LjY5Mi4wNyA0Ljg0NiA2LjY1OS00Ljg4MSA2LjU4OS0zOC4xMDUtLjA3TDkuMzE5IDQ2LjA5M3oiLz4mI3hhOwk8cGF0aCBjbGFzcz0ic3QxIiBkPSJNMzIuNjUxIDQ1Ljg4OFYyNi44ODJoOC45MzZsNC41NzMgNS43MzEgNi4wMjcuMDQ5di0zLjAwN0g0OC40NGwtMi4xNjktMi43NzNoMTAuMTU2djguMTcySDQzLjk2NmwtMS44MjQtMi42MDFoLTQuNjU5bDIuODk3IDQuMDA2LTIuODk3IDMuODdoNC42NTlsMS44MjQtMi44MWgxMi40NjF2OC4zNjlINDYuMjcxbDIuMTY5LTIuNzYxaDMuNzQ3di0yLjk0Nkg0Ni4xNmwtNC41NzMgNS43MDd6Ii8+JiN4YTsJPHBhdGggY2xhc3M9InN0MiIgZD0iTTY3LjM4NyA0NC42MzNsLTYuNjM4LTQuMDA4di04LjMxOGw2LjYzOC0zLjkwOXoiLz4mI3hhOzwvc3ZnPg==;fontFamily=Helvetica;fontStyle=0;" parent="1" vertex="1">
          <mxGeometry x="292.51" y="620" width="40" height="32" as="geometry" />
        </mxCell>
        <mxCell id="5LN-RqDGlyLoc7xO4hJt-39" value="RGB Image" style="rounded=0;whiteSpace=wrap;html=1;align=left;strokeColor=none;fontFamily=Helvetica;fontStyle=0;fillColor=none;" parent="1" vertex="1">
          <mxGeometry x="251.28999999999996" y="227.5" width="77.87" height="45" as="geometry" />
        </mxCell>
        <mxCell id="CGxH58aDDcTyQuzBB_l0-3" value="Logged for End User" style="shape=note;whiteSpace=wrap;html=1;backgroundOutline=1;darkOpacity=0.05;shadow=1;fontFamily=Helvetica;fontStyle=1;fillColor=#f5f5f5;fontColor=#333333;strokeColor=#666666;" parent="1" vertex="1">
          <mxGeometry x="1270" y="316.02000000000004" width="80" height="120" as="geometry" />
        </mxCell>
        <mxCell id="CGxH58aDDcTyQuzBB_l0-4" value="" style="triangle;whiteSpace=wrap;html=1;shadow=1;rounded=1;fontFamily=Helvetica;fontStyle=0;fillColor=#f5f5f5;fontColor=#333333;strokeColor=#666666;" parent="1" vertex="1">
          <mxGeometry x="377.5" y="338.85" width="60" height="80" as="geometry" />
        </mxCell>
        <mxCell id="CGxH58aDDcTyQuzBB_l0-5" value="" style="triangle;whiteSpace=wrap;html=1;shadow=1;rounded=1;fontFamily=Helvetica;fontStyle=0;fillColor=#f5f5f5;fontColor=#333333;strokeColor=#666666;" parent="1" vertex="1">
          <mxGeometry x="1190" y="336.02" width="60" height="80" as="geometry" />
        </mxCell>
        <mxCell id="CGxH58aDDcTyQuzBB_l0-7" value="Relative Az./El. of Keypoints" style="rounded=0;whiteSpace=wrap;html=1;align=center;strokeColor=none;fontFamily=Helvetica;fontStyle=0;fillColor=none;" parent="1" vertex="1">
          <mxGeometry x="360" y="420.85" width="95" height="45" as="geometry" />
        </mxCell>
        <mxCell id="CGxH58aDDcTyQuzBB_l0-8" value="Recursive Pose Estimate" style="rounded=0;whiteSpace=wrap;html=1;align=center;strokeColor=none;fontFamily=Helvetica;fontStyle=0;fillColor=none;" parent="1" vertex="1">
          <mxGeometry x="1165" y="417.5" width="110" height="45" as="geometry" />
        </mxCell>
        <mxCell id="CGxH58aDDcTyQuzBB_l0-9" value="OR" style="ellipse;whiteSpace=wrap;html=1;aspect=fixed;shadow=1;fontFamily=Helvetica;fontStyle=0;fillColor=#6d8764;fontColor=#ffffff;strokeColor=#3A5431;" parent="1" vertex="1">
          <mxGeometry x="597.5" y="369.35" width="30" height="30" as="geometry" />
        </mxCell>
        <mxCell id="CGxH58aDDcTyQuzBB_l0-10" value="" style="editableCssRules=.*;html=1;shape=image;verticalLabelPosition=bottom;labelBackgroundColor=#ffffff;verticalAlign=top;aspect=fixed;imageAspect=0;image=data:image/svg+xml,PHN2ZyB4bWxucz0iaHR0cDovL3d3dy53My5vcmcvMjAwMC9zdmciIHhtbG5zOnY9Imh0dHBzOi8vdmVjdGEuaW8vbmFubyIgd2lkdGg9IjE5Ljk4OTk5OTc3MTExODE2NCIgaGVpZ2h0PSIxNCIgdmlld0JveD0iMCAwIDE5Ljk4OTk5OTc3MTExODE2NCAxNCI+JiN4YTsJPHN0eWxlIHR5cGU9InRleHQvY3NzIj4mI3hhOwkuc3Qwe2ZpbGw6IzY2OWRmNjt9JiN4YTsJLnN0MXtmaWxsOiM0Mjg1ZjQ7fSYjeGE7CTwvc3R5bGU+JiN4YTsJPHBhdGggY2xhc3M9InN0MCIgZD0iTTEwLjI3IDIuMzNoMi4wNXYxLjMzSDkuNEw3LjA3IDBIMHY0LjMzaDEuOTlMMy4yNSAyaDIuNTdsLjg2IDEuMzNINC4xMUwyLjg1IDUuNjZIMHYyLjU5aDIuODVsMS4yNiAyLjQxaDIuNTdMNS44MiAxMkgzLjI1TDEuOTkgOS42NkgwVjE0aDcuMDdsMi4zMy0zLjY3aDIuOTJ2MS4zM2gtMi4wNUw4LjggMTRoNS41MlY3LjY2SDcuOTFMNy4wOCA5SDUuMjRMNi41IDcgNS4yNCA1aDEuODRsLjggMS4zM2g2LjQ0VjBIOC44eiIvPiYjeGE7CTxwYXRoIGNsYXNzPSJzdDEiIGQ9Ik0xNS45OSAxMC4xMWw0IDIuOTVWMS4xbC00IDIuOTF6Ii8+JiN4YTs8L3N2Zz4=;" parent="1" vertex="1">
          <mxGeometry x="251.22000000000003" y="186.3" width="21" height="14.7" as="geometry" />
        </mxCell>
        <mxCell id="CGxH58aDDcTyQuzBB_l0-11" value="" style="editableCssRules=.*;html=1;shape=image;verticalLabelPosition=bottom;labelBackgroundColor=#ffffff;verticalAlign=top;aspect=fixed;imageAspect=0;image=data:image/svg+xml,PHN2ZyB4bWxucz0iaHR0cDovL3d3dy53My5vcmcvMjAwMC9zdmciIHhtbG5zOnY9Imh0dHBzOi8vdmVjdGEuaW8vbmFubyIgd2lkdGg9IjQwMi4zNDMyMDA2ODM1OTM3NSIgaGVpZ2h0PSI0MTYuMDAyNTMyOTU4OTg0NCIgdmlld0JveD0iMCAwLjAwMDQ5OTk2Mzc2MDM3NTk3NjYgNDAyLjM0MzIwMDY4MzU5Mzc1IDQxNi4wMDI1MzI5NTg5ODQ0Ij4mI3hhOwk8c3R5bGUgdHlwZT0idGV4dC9jc3MiPiYjeGE7CS5zdDB7ZmlsbDojNDI4NWY0O30mI3hhOwkuc3Qxe2ZpbGw6IzY2OWRmNjt9JiN4YTsJLnN0MntmaWxsOiNhZWNiZmE7fSYjeGE7CTwvc3R5bGU+JiN4YTsJPHBhdGggY2xhc3M9InN0MiIgZD0iTTM2Ni4xNyA5Mi4wMDNjLTE5LjA1IDAtMzYgMTYuODItMzYgMzUuNzYgMCAxMi42MiA4LjQ2IDI1LjI0IDE5LjA1IDMxLjU1djE0Ny4zbC0xMTAuMDUgNjUuMjEgMTYuOTMgMjcuMzUgMTE4LjUxLTY5LjQyYzQuMjQtMi4xIDguNDctOC40MSA4LjQ3LTE0Ljczdi0xNTUuNjdjMTIuNzEtNi4zNSAxOS4wOS0xOC45MyAxOS4wOS0zMS41NSAyLjA4LTE4Ljk0LTE0Ljg1LTM1LjgtMzYtMzUuOHptLTM4LjExLTIzLjFMMjA5LjU1IDEuNTgzYy00LjI0LTIuMTEtMTAuNTktMi4xMS0xNi45MyAwTDU3LjE3IDc5LjQxM0EzNiAzNiAwIDAgMCAzNiA3My4xMDNjLTE5IDAtMzYgMTYuODMtMzYgMzUuNzZzMTYuOTMgMzUuNzcgMzYgMzUuNzcgMzYtMTYuODMgMzYtMzUuNzdsMTI5LjEtNzMuNjIgMTEwIDYzLjExem0tMTQzLjg5IDI3Ny42OHEtOS41MyAwLTE5IDYuMzFsLTExMC02My4xMXYtMTI2LjIyaC0zNHYxMzQuNjNjMCA2LjMyIDQuMjMgMTIuNjMgOC40NiAxNC43M2wxMTguNTQgNjUuMjF2Mi4xMWMwIDE4LjkzIDE2LjkzIDM1Ljc2IDM2IDM1Ljc2czM2LTE2LjgzIDM2LTM1Ljc2LTE3LTMzLjY2LTM2LTMzLjY2eiIvPiYjeGE7CTxwYXRoIGNsYXNzPSJzdDEiIGQ9Ik05Ny4zOCAxMzYuMjEzbDEwNS44MiA1OC45MSAxMDMuNy01OC45MS0xMDMuNy02MXptLTYuMzUgNjcuMzJsMTEyLjE3IDYzLjExdi01MC40OWwtMTEyLjE3LTY1LjIxem0wIDYzLjExbDExMi4xNyA2NS4yMXYtNDQuMTdsLTExMi4xNy02NS4yMnoiLz4mI3hhOwk8cGF0aCBjbGFzcz0ic3QwIiBkPSJNMjAzLjE3IDIxNi4xMjN2NTAuNTZsMTEyLjE2LTY1LjI5di01MC4zOXptOTItMjBhOC4xNiA4LjE2IDAgMSAxIDguMTYtOC4xNiA4LjE5IDguMTkgMCAwIDEtOC4xNiA4LjE2em0tOTIgOTEuNTJ2NDQuMTZsMTEyLjE2LTY1LjEydi00NC4xNnptOTItMjIuODhhOC4xNiA4LjE2IDAgMSAxIDguMTYtOC4xNiA4LjE5IDguMTkgMCAwIDEtOC4xNiA4LjE2eiIvPiYjeGE7PC9zdmc+;" parent="1" vertex="1">
          <mxGeometry x="1045" y="398.82000000000005" width="29" height="30.53" as="geometry" />
        </mxCell>
        <mxCell id="CGxH58aDDcTyQuzBB_l0-14" value="" style="editableCssRules=.*;html=1;shape=image;verticalLabelPosition=bottom;labelBackgroundColor=#ffffff;verticalAlign=top;aspect=fixed;imageAspect=0;image=data:image/svg+xml,PHN2ZyB4bWxucz0iaHR0cDovL3d3dy53My5vcmcvMjAwMC9zdmciIHhtbG5zOnY9Imh0dHBzOi8vdmVjdGEuaW8vbmFubyIgd2lkdGg9IjE4IiBoZWlnaHQ9IjE4IiB2aWV3Qm94PSIwIDAgMTggMTgiPiYjeGE7CTxzdHlsZSB0eXBlPSJ0ZXh0L2NzcyI+JiN4YTsJLnN0MHtmaWxsOiM0Mjg1ZjQ7fSYjeGE7CS5zdDF7ZmlsbDojNjY5ZGY2O30mI3hhOwk8L3N0eWxlPiYjeGE7CTxnIGNsYXNzPSJzdDAiIGZpbGw9IiM0Mjg1ZjQiPiYjeGE7CQk8cGF0aCBkPSJNMy40OCA2LjYyYS4zNy4zNyAwIDAgMS0uMzU4LS41MzMuMzcuMzcgMCAwIDEgLjMwOC0uMjA3bDIuMy0uMzJhLjM3LjM3IDAgMCAxIC40Mi4zMi4zOC4zOCAwIDAgMS0uMzIuNDNsLTIuMy4zMXoiLz4mI3hhOwkJPHBhdGggZD0iTTYuMjk5IDYuMjkybC4yMzMtLjcxMyA0LjE0NSAxLjM1Mi0uMjMzLjcxM3oiLz4mI3hhOwkJPHBhdGggZD0iTTYuMTggNi4xNmgtLjExYS4zNy4zNyAwIDAgMS0uMjQtLjQ2bC44My0yLjg0YS4zNy4zNyAwIDAgMSAuNDYtLjI0LjM2LjM2IDAgMCAxIC4yNi40NWwtLjg0IDIuODFhLjM4LjM4IDAgMCAxLS4zNi4yOHptNS4xMyAxLjRBLjM2LjM2IDAgMCAxIDExIDdsMS42Ny00LjIzYS4zOC4zOCAwIDAgMSAuNDctLjE4LjM4LjM4IDAgMCAxIC4yMy40NWwtMS42OCA0LjI0YS4zOS4zOSAwIDAgMS0uMzguMjh6Ii8+JiN4YTsJCTxwYXRoIGQ9Ik0yLjY2OSAxMy42MDRMNi42IDEwLjQ2NWwuNDY4LjU4Ni0zLjkzMSAzLjEzOXpNMTUuMDUgOC42MWwtLjMuNjgtMy42My0xLjU4LjI5LS42OXptLS4zMSA1LjQ4bC0uNTIuNTQtMy4yMy0zLjA0LjUyLS41NXpNNS43ODggNi4xMTNsLjczNS0uMTQ5LjgwOCAzLjk3OS0uNzM1LjE0OXoiLz4mI3hhOwkJPHBhdGggZD0iTTExLjU2IDcuNTZsLTQuMSAzLjYtLjUtLjU2IDQuMS0zLjZ6Ii8+JiN4YTsJCTxwYXRoIGQ9Ik0xMS43NCA3LjNsLS4yNSAzLjk3LS43NC0uMDUuMjQtMy45N3oiLz4mI3hhOwkJPGNpcmNsZSBjeD0iNy4wMSIgY3k9IjEwLjgyIiByPSIxLjM2Ii8+JiN4YTsJCTxjaXJjbGUgY3g9IjExLjM3IiBjeT0iNy4zNiIgcj0iMS42MSIvPiYjeGE7CQk8Y2lyY2xlIGN4PSIxMS4zNiIgY3k9IjExLjU0IiByPSIuODQiLz4mI3hhOwkJPGNpcmNsZSBjeD0iNi4wNCIgY3k9IjUuNjciIHI9Ii45OSIvPiYjeGE7CTwvZz4mI3hhOwk8ZyBjbGFzcz0ic3QxIiBmaWxsPSIjNjY5ZGY2Ij4mI3hhOwkJPHBhdGggZD0iTTggNGgyVjBIOHptNCAwaDJWMGgtMnpNNCA0aDJWMEg0em00IDE0aDJ2LTRIOHoiLz4mI3hhOwkJPHBhdGggZD0iTTEyIDE4aDJ2LTRoLTJ6bS04IDBoMnYtNEg0em0tNC04aDRWOEgwem0wLTRoNFY0SDB6Ii8+JiN4YTsJCTxwYXRoIGQ9Ik0wIDE0aDR2LTJIMHptMTQtNGg0VjhoLTR6bTAtNGg0VjRoLTR6bTAgOGg0di0yaC00eiIvPiYjeGE7CQk8cGF0aCBkPSJNMTUgMkgzYTEgMSAwIDAgMC0xIDF2MTJhMSAxIDAgMCAwIDEgMWgxMmExIDEgMCAwIDAgMS0xVjNhMSAxIDAgMCAwLTEtMXptLTEgMTEuNDdhLjUzLjUzIDAgMCAxLS41My41M0g0LjUzYS41My41MyAwIDAgMS0uNTMtLjUzVjQuNTNBLjUzLjUzIDAgMCAxIDQuNTMgNGg4Ljk0YS41My41MyAwIDAgMSAuNTMuNTN6Ii8+JiN4YTsJPC9nPiYjeGE7PC9zdmc+;" parent="1" vertex="1">
          <mxGeometry x="557.5" y="404.35" width="25" height="25" as="geometry" />
        </mxCell>
        <mxCell id="CGxH58aDDcTyQuzBB_l0-15" value="" style="editableCssRules=.*;html=1;shape=image;verticalLabelPosition=bottom;labelBackgroundColor=#ffffff;verticalAlign=top;aspect=fixed;imageAspect=0;image=data:image/svg+xml,PHN2ZyB4bWxucz0iaHR0cDovL3d3dy53My5vcmcvMjAwMC9zdmciIHhtbG5zOnY9Imh0dHBzOi8vdmVjdGEuaW8vbmFubyIgd2lkdGg9IjIwIiBoZWlnaHQ9IjE2IiB2aWV3Qm94PSIwIDAgMjAgMTYiPiYjeGE7CTxzdHlsZSB0eXBlPSJ0ZXh0L2NzcyI+JiN4YTsJLnN0MHtmaWxsOiM2NjlkZjY7fSYjeGE7CS5zdDF7ZmlsbDojNDI4NWY0O30mI3hhOwkuc3Qye2ZpbGw6I2FlY2JmYTt9JiN4YTsJPC9zdHlsZT4mI3hhOwk8cGF0aCBjbGFzcz0ic3QwIiBkPSJNMTUgMmgzdjEyaC0zdjJoMyAydi0yVjIgMGgtMi0zeiIvPiYjeGE7CTxwYXRoIGNsYXNzPSJzdDEiIGQ9Ik0xOCAydjFsMi0xem0yIDEydi0xbC0yIDF6Ii8+JiN4YTsJPHBhdGggY2xhc3M9InN0MCIgZD0iTTUgMTRIMlYyaDNWMEgyIDB2MiAxMiAyaDIgM3oiLz4mI3hhOwk8cGF0aCBjbGFzcz0ic3QxIiBkPSJNMCAxNHYtMWwyIDF6TTIgMnYxTDAgMnoiLz4mI3hhOwk8cGF0aCBjbGFzcz0ic3QyIiBkPSJNNSA3aDEwdjJINXptMCAzaDEwdjJINXptMC02aDEwdjJINXoiLz4mI3hhOzwvc3ZnPg==;" parent="1" vertex="1">
          <mxGeometry x="1318" y="409.67" width="25" height="20" as="geometry" />
        </mxCell>
        <mxCell id="CGxH58aDDcTyQuzBB_l0-16" value="" style="editableCssRules=.*;html=1;shape=image;verticalLabelPosition=bottom;labelBackgroundColor=#ffffff;verticalAlign=top;aspect=fixed;imageAspect=0;image=data:image/svg+xml,PHN2ZyB4bWxucz0iaHR0cDovL3d3dy53My5vcmcvMjAwMC9zdmciIHhtbG5zOnY9Imh0dHBzOi8vdmVjdGEuaW8vbmFubyIgd2lkdGg9IjIwIiBoZWlnaHQ9IjIwIiB2aWV3Qm94PSIwIDAgMjAgMjAiPiYjeGE7CTxzdHlsZSB0eXBlPSJ0ZXh0L2NzcyI+JiN4YTsJLnN0MHtmaWxsOiM0Mjg1ZjQ7fSYjeGE7CS5zdDF7ZmlsbDojNjY5ZGY2O30mI3hhOwkuc3Qye2ZpbGw6I2FlY2JmYTt9JiN4YTsJPC9zdHlsZT4mI3hhOwk8cGF0aCBjbGFzcz0ic3QyIiBkPSJNNyA3aDZ2Nkg3eiIvPiYjeGE7CTxwYXRoIGNsYXNzPSJzdDEiIGQ9Ik05IDBoMnY0SDl6TTUgMGgydjRINXptOCAwaDJ2NGgtMnoiLz4mI3hhOwk8cGF0aCBjbGFzcz0ic3QwIiBkPSJNOSAxNmgydjRIOXptLTQgMGgydjRINXptOCAwaDJ2NGgtMnptMy01VjloNHYyem0wIDR2LTJoNHYyem0wLThWNWg0djJ6Ii8+JiN4YTsJPHBhdGggY2xhc3M9InN0MSIgZD0iTTAgMTFWOWg0djJ6bTAgNHYtMmg0djJ6bTAtOFY1aDR2MnoiLz4mI3hhOwk8cGF0aCBjbGFzcz0ic3QyIiBkPSJNMyAzdjE0aDE0VjN6bTEyIDEySDVWNWgxMHoiLz4mI3hhOwk8cGF0aCBjbGFzcz0ic3QxIiBkPSJNMTAgMTBsLTMgM2g2eiIvPiYjeGE7CTxwYXRoIGNsYXNzPSJzdDAiIGQ9Ik0xMyA3bC0zIDMgMyAzeiIvPiYjeGE7PC9zdmc+;" parent="1" vertex="1">
          <mxGeometry x="703.5" y="402.85" width="26" height="26" as="geometry" />
        </mxCell>
        <mxCell id="CGxH58aDDcTyQuzBB_l0-17" value="" style="editableCssRules=.*;html=1;shape=image;verticalLabelPosition=bottom;labelBackgroundColor=#ffffff;verticalAlign=top;aspect=fixed;imageAspect=0;image=data:image/svg+xml,PHN2ZyB4bWxucz0iaHR0cDovL3d3dy53My5vcmcvMjAwMC9zdmciIHhtbG5zOnY9Imh0dHBzOi8vdmVjdGEuaW8vbmFubyIgd2lkdGg9IjIwIiBoZWlnaHQ9IjE2IiB2aWV3Qm94PSIwIDAgMjAgMTYiPiYjeGE7CTxzdHlsZSB0eXBlPSJ0ZXh0L2NzcyI+JiN4YTsJLnN0MHtmaWxsOiM2NjlkZjY7fSYjeGE7CS5zdDF7ZmlsbDojYWVjYmZhO30mI3hhOwkuc3Qye2ZpbGw6IzQyODVmNDt9JiN4YTsJPC9zdHlsZT4mI3hhOwk8ZyBjbGFzcz0ic3QwIj4mI3hhOwkJPHBhdGggZD0iTTEwIDE2TDAgOGg0bDYgNC45OXoiLz4mI3hhOwkJPHBhdGggZD0iTTIwIDhsLTEwIDh2LTMuMDFMMTYgOHoiLz4mI3hhOwk8L2c+JiN4YTsJPGcgY2xhc3M9InN0MSI+JiN4YTsJCTxwYXRoIGQ9Ik0xMCAzLjAxTDQgOEgwbDEwLTh6Ii8+JiN4YTsJCTxwYXRoIGQ9Ik0yMCA4TDEwIDB2My4wMUwxNiA4eiIvPiYjeGE7CTwvZz4mI3hhOwk8Y2lyY2xlIGNsYXNzPSJzdDIiIGN4PSIxMCIgY3k9IjgiIHI9IjIiLz4mI3hhOzwvc3ZnPg==;" parent="1" vertex="1">
          <mxGeometry x="257" y="399.7" width="30.37" height="24.3" as="geometry" />
        </mxCell>
        <mxCell id="CGxH58aDDcTyQuzBB_l0-19" value="C++" style="rounded=1;whiteSpace=wrap;html=1;fontFamily=Helvetica;fontStyle=0;fillColor=#f0a30a;fontColor=#FFFFFF;strokeColor=#BD7000;shadow=1;" parent="1" vertex="1">
          <mxGeometry x="865" y="481.35" width="40" height="20" as="geometry" />
        </mxCell>
        <mxCell id="CGxH58aDDcTyQuzBB_l0-21" value="Static Pose Estimate" style="rounded=0;whiteSpace=wrap;html=1;align=center;strokeColor=none;fontFamily=Helvetica;fontStyle=0;fillColor=none;fontColor=#000000;" parent="1" vertex="1">
          <mxGeometry x="765" y="413.09999999999997" width="95" height="45" as="geometry" />
        </mxCell>
        <mxCell id="CGxH58aDDcTyQuzBB_l0-22" value="C++" style="rounded=1;whiteSpace=wrap;html=1;fontFamily=Helvetica;fontStyle=0;fillColor=#6d8764;fontColor=#ffffff;strokeColor=#3A5431;shadow=1;" parent="1" vertex="1">
          <mxGeometry x="477.5" y="478.35" width="40" height="20" as="geometry" />
        </mxCell>
        <mxCell id="CGxH58aDDcTyQuzBB_l0-26" value="50 Hz" style="ellipse;whiteSpace=wrap;html=1;fillColor=#ffe6cc;shadow=1;strokeColor=#d79b00;fontColor=#965900;" parent="1" vertex="1">
          <mxGeometry x="939" y="406.35" width="46" height="21" as="geometry" />
        </mxCell>
        <mxCell id="EwTlEHrbE4cRD-cIpj15-2" value="1-10 Hz" style="ellipse;whiteSpace=wrap;html=1;shadow=1;fillColor=none;strokeWidth=1;fontStyle=0" parent="1" vertex="1">
          <mxGeometry x="80" y="667" width="46" height="27" as="geometry" />
        </mxCell>
        <mxCell id="EwTlEHrbE4cRD-cIpj15-4" value="" style="triangle;whiteSpace=wrap;html=1;shadow=1;rounded=1;fontFamily=Helvetica;fontStyle=0;fillColor=#f5f5f5;fontColor=#333333;strokeColor=#666666;rotation=90;" parent="1" vertex="1">
          <mxGeometry x="185.36" y="210" width="60" height="80" as="geometry" />
        </mxCell>
        <mxCell id="EwTlEHrbE4cRD-cIpj15-5" value="" style="triangle;whiteSpace=wrap;html=1;shadow=1;rounded=1;fontFamily=Helvetica;fontStyle=0;fillColor=#f5f5f5;fontColor=#333333;strokeColor=#666666;" parent="1" vertex="1">
          <mxGeometry x="782.5" y="334.5" width="60" height="80" as="geometry" />
        </mxCell>
        <mxCell id="EwTlEHrbE4cRD-cIpj15-8" value="" style="triangle;whiteSpace=wrap;html=1;shadow=1;rounded=1;fontFamily=Helvetica;fontStyle=0;fillColor=#f5f5f5;fontColor=#333333;strokeColor=#666666;rotation=90;" parent="1" vertex="1">
          <mxGeometry x="185.48000000000002" y="434.5" width="60" height="80" as="geometry" />
        </mxCell>
        <mxCell id="P5R-ajKnIvy6LXupcmW0-1" value="" style="triangle;whiteSpace=wrap;html=1;shadow=1;rounded=1;fontFamily=Helvetica;fontStyle=0;fillColor=#f5f5f5;fontColor=#333333;strokeColor=#666666;" vertex="1" parent="1">
          <mxGeometry x="377.5" y="550" width="60" height="80" as="geometry" />
        </mxCell>
        <mxCell id="P5R-ajKnIvy6LXupcmW0-2" value="Logged for Network Predictions" style="shape=note;whiteSpace=wrap;html=1;backgroundOutline=1;darkOpacity=0.05;shadow=1;fontFamily=Helvetica;fontStyle=1;fillColor=#f5f5f5;fontColor=#333333;strokeColor=#666666;" vertex="1" parent="1">
          <mxGeometry x="460" y="540" width="80" height="120" as="geometry" />
        </mxCell>
        <mxCell id="P5R-ajKnIvy6LXupcmW0-4" value="" style="editableCssRules=.*;html=1;shape=image;verticalLabelPosition=bottom;labelBackgroundColor=#ffffff;verticalAlign=top;aspect=fixed;imageAspect=0;image=data:image/svg+xml,PHN2ZyB4bWxucz0iaHR0cDovL3d3dy53My5vcmcvMjAwMC9zdmciIHhtbG5zOnY9Imh0dHBzOi8vdmVjdGEuaW8vbmFubyIgd2lkdGg9IjIwIiBoZWlnaHQ9IjE2IiB2aWV3Qm94PSIwIDAgMjAgMTYiPiYjeGE7CTxzdHlsZSB0eXBlPSJ0ZXh0L2NzcyI+JiN4YTsJLnN0MHtmaWxsOiM0Mjg1ZjQ7fSYjeGE7CS5zdDF7ZmlsbDojNjY5ZGY2O30mI3hhOwkuc3Qye2ZpbGw6I2FlY2JmYTt9JiN4YTsJPC9zdHlsZT4mI3hhOwk8cGF0aCBjbGFzcz0ic3QwIiBkPSJNMTIgMTBIOEw2IDhoOHoiLz4mI3hhOwk8cGF0aCBjbGFzcz0ic3QyIiBkPSJNMTYgMkg0bDEtMmgxMHptMyAzSDFsMS0yaDE2eiIvPiYjeGE7CTxwYXRoIGNsYXNzPSJzdDEiIGQ9Ik0xNCA3bC0yIDNIOEw2IDdIMHY5aDIwVjd6Ii8+JiN4YTs8L3N2Zz4=;" vertex="1" parent="1">
          <mxGeometry x="510.61" y="635.89" width="23.89" height="19.11" as="geometry" />
        </mxCell>
        <mxCell id="P5R-ajKnIvy6LXupcmW0-5" value="Pose Terrier" style="rounded=0;whiteSpace=wrap;html=1;align=center;strokeColor=none;fontFamily=Helvetica;fontStyle=1;fillColor=none;" vertex="1" parent="1">
          <mxGeometry x="765" y="230" width="110" height="19.11" as="geometry" />
        </mxCell>
        <mxCell id="P5R-ajKnIvy6LXupcmW0-6" value="Network Outputs" style="rounded=0;whiteSpace=wrap;html=1;align=center;strokeColor=none;fontFamily=Helvetica;fontStyle=0;fillColor=none;" vertex="1" parent="1">
          <mxGeometry x="360" y="630.44" width="95" height="30" as="geometry" />
        </mxCell>
      </root>
    </mxGraphModel>
  </diagram>
</mxfile>
